<svg xmlns="http://www.w3.org/2000/svg" viewBox="0 0 512 512" role="img" aria-labelledby="title description">
  <title id="title">Pixel Crew</title>
  <desc id="description">A cyan pixel crew member on a dark office grid.</desc>
  <rect width="512" height="512" fill="#070a14"/>
  <path d="M0 128h512M0 256h512M0 384h512M128 0v512M256 0v512M384 0v512" stroke="#4de3ff" stroke-opacity=".09" stroke-width="8"/>
  <path d="M176 112h160v48h48v144h-48v96H176v-96h-48V160h48z" fill="#10243a" stroke="#4de3ff" stroke-width="16"/>
  <path d="M192 192h48v48h-48zm80 0h48v48h-48z" fill="#dce9f7"/>
  <path d="M208 288h96v32h-96z" fill="#37d6a3"/>
  <path d="M176 352h48v48h-48zm112 0h48v48h-48z" fill="#4de3ff"/>
  <circle cx="400" cy="112" r="28" fill="#37d6a3"/>
</svg>
